<?xml version="1.0" encoding="UTF-8" standalone="no"?>
<!-- Created with Inkscape (http://www.inkscape.org/) -->

<svg
   width="38.000263mm"
   height="47.964104mm"
   viewBox="0 0 38.000263 47.964104"
   version="1.1"
   id="svg1"
   inkscape:version="1.3.2 (091e20e, 2023-11-25, custom)"
   sodipodi:docname="icono_pantalla.svg"
   xml:space="preserve"
   xmlns:inkscape="http://www.inkscape.org/namespaces/inkscape"
   xmlns:sodipodi="http://sodipodi.sourceforge.net/DTD/sodipodi-0.dtd"
   xmlns="http://www.w3.org/2000/svg"
   xmlns:svg="http://www.w3.org/2000/svg"><sodipodi:namedview
     id="namedview1"
     pagecolor="#606060"
     bordercolor="#000000"
     borderopacity="0.25"
     inkscape:showpageshadow="false"
     inkscape:pageopacity="0.0"
     inkscape:pagecheckerboard="false"
     inkscape:deskcolor="#535353"
     inkscape:document-units="mm"
     showgrid="true"
     inkscape:zoom="2.6775672"
     inkscape:cx="-37.160598"
     inkscape:cy="58.075106"
     inkscape:window-width="1920"
     inkscape:window-height="1057"
     inkscape:window-x="1358"
     inkscape:window-y="-8"
     inkscape:window-maximized="1"
     inkscape:current-layer="svg1"><inkscape:grid
       id="grid1"
       units="cm"
       originx="-845.21921"
       originy="-251.26362"
       spacingx="500"
       spacingy="500"
       empcolor="#ffffff"
       empopacity="0.05882353"
       color="#0099e5"
       opacity="0"
       empspacing="1"
       dotted="false"
       gridanglex="30"
       gridanglez="30"
       visible="true"
       enabled="false" /><inkscape:grid
       id="grid2"
       units="cm"
       originx="-845.21921"
       originy="-251.26362"
       spacingx="99.999999"
       spacingy="99.999999"
       empcolor="#05e500"
       empopacity="0.10196078"
       color="#0099e5"
       opacity="0"
       empspacing="1"
       dotted="true"
       gridanglex="30"
       gridanglez="30"
       visible="true"
       enabled="false" /><inkscape:grid
       id="grid3"
       units="cm"
       originx="-845.21921"
       originy="-251.26362"
       spacingx="9.9999999"
       spacingy="9.9999999"
       empcolor="#98ff34"
       empopacity="0.05098039"
       color="#0099e5"
       opacity="0"
       empspacing="1"
       dotted="false"
       gridanglex="30"
       gridanglez="30"
       visible="true"
       enabled="false" /><inkscape:grid
       id="grid4"
       units="cm"
       originx="-845.21921"
       originy="-251.26362"
       spacingx="5"
       spacingy="5"
       empcolor="#00a5e5"
       empopacity="0.05098039"
       color="#0099e5"
       opacity="0"
       empspacing="1"
       dotted="true"
       gridanglex="30"
       gridanglez="30"
       visible="true"
       enabled="false" /></sodipodi:namedview><defs
     id="defs1" /><rect
     style="opacity:0;fill:#ff0000;fill-opacity:1;stroke:none;stroke-width:2;stroke-linecap:round;stroke-linejoin:round;stroke-dasharray:none;stroke-opacity:1"
     id="rect8"
     width="38.000263"
     height="47.964104"
     x="-2.545768e-08"
     y="1.0586806e-06"
     rx="2.9999998"
     ry="3.0000002"
     inkscape:export-filename="icono_tactil.svg"
     inkscape:export-xdpi="96"
     inkscape:export-ydpi="96" /><path
     id="rect1"
     style="color:#000000;fill:#b1f028;stroke-linecap:round;stroke-linejoin:round;-inkscape-stroke:none"
     d="M 10.46836,5.5822402e-6 C 8.538015,5.5822402e-6 6.968315,1.5697046 6.968315,3.5000506 V 37.500043 c 0,1.930345 1.5697,3.500044 3.500045,3.500044 h 1.144116 v 1.850017 c 1.12e-4,0.82695 0.500804,1.570182 1.264005,1.875337 l 7.706507,3.080949 c 0.474744,0.189725 1.0032,0.189725 1.477946,0 l 7.706506,-3.080949 c 0.03726,-0.01573 0.07433,-0.03268 0.110588,-0.05064 0.01079,-0.0049 0.02134,-0.01 0.03204,-0.01499 0.129939,-0.06375 0.252535,-0.141174 0.365869,-0.23151 0.0021,-0.0019 0.0045,-0.0039 0.0067,-0.0057 0.110125,-0.08959 0.210242,-0.190889 0.299207,-0.301791 0.0091,-0.01153 0.01809,-0.02289 0.02687,-0.03462 0.08165,-0.105861 0.152633,-0.219995 0.211874,-0.340031 0.0066,-0.01355 0.01277,-0.02711 0.01912,-0.04082 0.05772,-0.12368 0.103101,-0.252646 0.134876,-0.385506 0.0029,-0.01053 0.0056,-0.02145 0.0083,-0.03204 0.03087,-0.139729 0.04716,-0.282155 0.04806,-0.425297 4.26e-4,-0.0042 6.73e-4,-0.0083 10e-4,-0.0124 V 32.595433 c -2.85e-4,-1.114144 -0.89716,-2.017379 -2.003495,-2.017448 -0.384777,0.0023 -0.748852,0.118475 -1.059884,0.317293 V 3.5000506 c 0,-1.930346 -1.569699,-3.5000450177598 -3.500044,-3.5000450177598 h -2.998267 -8.001579 z m 0,1.0004560177598 h 1.502234 c 0,0.406848 0.296311,0.664402 0.56844,0.800468 0.27213,0.136065 0.585574,0.199471 0.929659,0.199471 h 8.000029 c 0.344085,0 0.659078,-0.06341 0.931209,-0.199471 0.27213,-0.136066 0.568441,-0.39362 0.568441,-0.800468 h 1.500167 c 1.393643,0 2.500105,1.105944 2.500105,2.499589 V 30.929384 c -0.327621,-0.664741 -1.006325,-1.122724 -1.793172,-1.122929 -0.815976,0.0046 -1.547834,0.506883 -1.850016,1.270207 v -0.03669 c -2.87e-4,-1.114144 -0.897159,-2.01738 -2.003495,-2.017448 -0.816273,0.0049 -1.547695,0.507961 -1.8495,1.271757 v -9.327596 c -6.8e-5,-1.1143 -0.897003,-2.017897 -2.003495,-2.017965 -1.106338,2.89e-4 -2.003427,0.903822 -2.003495,2.017965 v 15.454354 c -0.296476,-0.770413 -1.029079,-1.280685 -1.8495,-1.288294 -1.106493,6.8e-5 -2.003428,0.903147 -2.003495,2.017448 v 2.849956 H 10.46836 c -1.393645,0 -2.500106,-1.106463 -2.500106,-2.500106 V 3.5000506 c 0,-1.393645 1.106461,-2.499589 2.500106,-2.499589 z m 2.406054,13.9221474 -2.999817,1.500167 2.999817,1.500167 v -0.999939 h 9.18807 v 0.999939 l 2.999817,-1.500167 -2.999817,-1.500167 v 1.000456 h -9.18807 z"
     sodipodi:nodetypes="sssscccccccccccccccccccccssccsscsssscsscccccccccccccssssccccccccccc"
     inkscape:export-filename="icono_tactil.svg"
     inkscape:export-xdpi="96"
     inkscape:export-ydpi="96" /></svg>
