<?xml version="1.0" encoding="UTF-8" standalone="no"?>
<!-- Created with Inkscape (http://www.inkscape.org/) -->

<svg
   width="51.377743mm"
   height="41.000084mm"
   viewBox="0 0 51.377743 41.000084"
   version="1.1"
   id="svg1"
   inkscape:version="1.3.2 (091e20e, 2023-11-25, custom)"
   sodipodi:docname="tmp_10cm_2.svg"
   xml:space="preserve"
   xmlns:inkscape="http://www.inkscape.org/namespaces/inkscape"
   xmlns:sodipodi="http://sodipodi.sourceforge.net/DTD/sodipodi-0.dtd"
   xmlns="http://www.w3.org/2000/svg"
   xmlns:svg="http://www.w3.org/2000/svg"><sodipodi:namedview
     id="namedview1"
     pagecolor="#606060"
     bordercolor="#000000"
     borderopacity="0.25"
     inkscape:showpageshadow="false"
     inkscape:pageopacity="0.0"
     inkscape:pagecheckerboard="false"
     inkscape:deskcolor="#535353"
     inkscape:document-units="mm"
     showgrid="true"
     inkscape:zoom="0.11313708"
     inkscape:cx="1193.2427"
     inkscape:cy="1286.0505"
     inkscape:window-width="1366"
     inkscape:window-height="745"
     inkscape:window-x="-8"
     inkscape:window-y="-8"
     inkscape:window-maximized="1"
     inkscape:current-layer="layer1"><inkscape:grid
       id="grid1"
       units="cm"
       originx="-841.37502"
       originy="-281.88667"
       spacingx="500"
       spacingy="500"
       empcolor="#ffffff"
       empopacity="0.05882353"
       color="#0099e5"
       opacity="0"
       empspacing="1"
       dotted="false"
       gridanglex="30"
       gridanglez="30"
       visible="true"
       enabled="false" /><inkscape:grid
       id="grid2"
       units="cm"
       originx="-841.37502"
       originy="-281.88667"
       spacingx="99.999999"
       spacingy="99.999999"
       empcolor="#05e500"
       empopacity="0.10196078"
       color="#0099e5"
       opacity="0"
       empspacing="1"
       dotted="true"
       gridanglex="30"
       gridanglez="30"
       visible="true"
       enabled="false" /><inkscape:grid
       id="grid3"
       units="cm"
       originx="-841.37502"
       originy="-281.88667"
       spacingx="9.9999999"
       spacingy="9.9999999"
       empcolor="#98ff34"
       empopacity="0.05098039"
       color="#0099e5"
       opacity="0"
       empspacing="1"
       dotted="false"
       gridanglex="30"
       gridanglez="30"
       visible="true"
       enabled="false" /><inkscape:grid
       id="grid4"
       units="cm"
       originx="-841.37502"
       originy="-281.88667"
       spacingx="5"
       spacingy="5"
       empcolor="#00a5e5"
       empopacity="0.05098039"
       color="#0099e5"
       opacity="0"
       empspacing="1"
       dotted="true"
       gridanglex="30"
       gridanglez="30"
       visible="true"
       enabled="false" /></sodipodi:namedview><defs
     id="defs1" /><path
     id="rect1"
     style="color:#000000;fill:#b1f028;fill-opacity:1;stroke-linecap:round;stroke-linejoin:round;-inkscape-stroke:none;paint-order:markers stroke fill"
     d="M 3.5000491,-1.0267145e-5 C 1.5697291,-1.0267145e-5 9.1286619e-6,1.5697097 9.1286619e-6,3.5000297 V 37.50003 c 0,1.93032 1.5697199713381,3.50004 3.5000399713381,3.50004 h 14.0001799 30.37748 c 1.93034,0 3.50004,-1.56918 3.50004,-3.49953 V 34.0005 27.00041 23.50036 c 0,-1.93033 -1.5697,-3.50004 -3.50004,-3.50004 H 20.999759 V 3.5000297 c 0,-1.93032 -1.56918,-3.500039967145 -3.49953,-3.500039967145 h -3.50004 -7.0000899 z m 0,0.999939997145 h 1.99988 c 0,0.40684997 0.29631,0.66490997 0.56844,0.80097997 0.27213,0.13607 0.58764,0.19896 0.93173,0.19896 h 7.0000899 c 0.34409,0 0.65908,-0.0629 0.93121,-0.19896 0.27213,-0.13607 0.56844,-0.39413 0.56844,-0.80097997 h 2.00039 c 1.39365,0 2.49959,1.10647997 2.49959,2.50009997 V 20.00032 h -6.12211 c -1.93033,0 -3.50004,1.56971 -3.50004,3.50004 v 14.00018 c 0,0.97898 0.40497,1.86398 1.05472,2.49959 H 3.5000491 c -1.39365,0 -2.50009997,-1.10645 -2.50009997,-2.5001 V 3.5000297 c 0,-1.39362 1.10644997,-2.50009997 2.50009997,-2.50009997 z M 22.999639,2.0365597 v 1.00769 c 6.62041,0.77141 12.07519,5.32286 14.15986,11.4416803 l -1.32395,0.31057 2.66495,3.20342 0.96377,-4.05401 -1.32654,0.31109 C 35.939379,7.7012597 30.085669,2.8180397 22.999639,2.0365597 Z M 13.877709,21.00026 h 34 c 1.39363,0 2.5001,1.10647 2.5001,2.5001 v 1.99988 c -0.40685,0 -0.66491,0.29631 -0.80098,0.56844 -0.13607,0.27213 -0.19896,0.58764 -0.19896,0.93173 v 7.00009 c 0,0.34409 0.0629,0.65908 0.19896,0.93121 0.13607,0.27213 0.39413,0.56844 0.80098,0.56844 v 2.00039 c 0,1.39364 -1.10647,2.49959 -2.5001,2.49959 h -34 c -1.39364,0 -2.5001,-1.10594 -2.5001,-2.49959 V 23.50036 c 0,-1.39364 1.10646,-2.5001 2.5001,-2.5001 z" /></svg>
