<?xml version="1.0" encoding="UTF-8" standalone="no"?>
<!-- Created with Inkscape (http://www.inkscape.org/) -->

<svg
   width="38.000263mm"
   height="47.964104mm"
   viewBox="0 0 38.000263 47.964104"
   version="1.1"
   id="svg1"
   inkscape:version="1.3.2 (091e20e, 2023-11-25, custom)"
   sodipodi:docname="icono_pantalla.svg"
   xml:space="preserve"
   xmlns:inkscape="http://www.inkscape.org/namespaces/inkscape"
   xmlns:sodipodi="http://sodipodi.sourceforge.net/DTD/sodipodi-0.dtd"
   xmlns="http://www.w3.org/2000/svg"
   xmlns:svg="http://www.w3.org/2000/svg"><sodipodi:namedview
     id="namedview1"
     pagecolor="#606060"
     bordercolor="#000000"
     borderopacity="0.25"
     inkscape:showpageshadow="false"
     inkscape:pageopacity="0.0"
     inkscape:pagecheckerboard="false"
     inkscape:deskcolor="#535353"
     inkscape:document-units="mm"
     showgrid="true"
     inkscape:zoom="2.6775672"
     inkscape:cx="-37.160598"
     inkscape:cy="58.075106"
     inkscape:window-width="1920"
     inkscape:window-height="1057"
     inkscape:window-x="1358"
     inkscape:window-y="-8"
     inkscape:window-maximized="1"
     inkscape:current-layer="svg1"><inkscape:grid
       id="grid1"
       units="cm"
       originx="-845.21921"
       originy="-251.26362"
       spacingx="500"
       spacingy="500"
       empcolor="#ffffff"
       empopacity="0.05882353"
       color="#0099e5"
       opacity="0"
       empspacing="1"
       dotted="false"
       gridanglex="30"
       gridanglez="30"
       visible="true"
       enabled="false" /><inkscape:grid
       id="grid2"
       units="cm"
       originx="-845.21921"
       originy="-251.26362"
       spacingx="99.999999"
       spacingy="99.999999"
       empcolor="#05e500"
       empopacity="0.10196078"
       color="#0099e5"
       opacity="0"
       empspacing="1"
       dotted="true"
       gridanglex="30"
       gridanglez="30"
       visible="true"
       enabled="false" /><inkscape:grid
       id="grid3"
       units="cm"
       originx="-845.21921"
       originy="-251.26362"
       spacingx="9.9999999"
       spacingy="9.9999999"
       empcolor="#98ff34"
       empopacity="0.05098039"
       color="#0099e5"
       opacity="0"
       empspacing="1"
       dotted="false"
       gridanglex="30"
       gridanglez="30"
       visible="true"
       enabled="false" /><inkscape:grid
       id="grid4"
       units="cm"
       originx="-845.21921"
       originy="-251.26362"
       spacingx="5"
       spacingy="5"
       empcolor="#00a5e5"
       empopacity="0.05098039"
       color="#0099e5"
       opacity="0"
       empspacing="1"
       dotted="true"
       gridanglex="30"
       gridanglez="30"
       visible="true"
       enabled="false" /></sodipodi:namedview><defs
     id="defs1" /><rect
     style="opacity:0;fill:#ff0000;fill-opacity:1;stroke:none;stroke-width:2;stroke-linecap:round;stroke-linejoin:round;stroke-dasharray:none;stroke-opacity:1"
     id="rect8"
     width="38.000263"
     height="47.964104"
     x="-2.545768e-08"
     y="1.0586806e-06"
     rx="2.9999998"
     ry="3.0000002"
     inkscape:export-filename="icono_tactil.svg"
     inkscape:export-xdpi="96"
     inkscape:export-ydpi="96" /><path
     id="rect7"
     style="fill:#b1f028;fill-opacity:1;stroke:none;stroke-width:1;stroke-linecap:round;stroke-linejoin:round;stroke-dasharray:none;stroke-opacity:1"
     d="m 16.000055,11.474333 c -1.66199,0 -2.999817,1.337825 -2.999817,2.999817 v 6.00015 c 0,1.661992 1.337827,2.999817 2.999817,2.999817 h 6.00015 c 1.661993,0 2.999817,-1.337825 2.999817,-2.999817 v -6.00015 c 0,-1.661992 -1.337824,-2.999817 -2.999817,-2.999817 z m 0,0.999939 h 5.999634 c 1.125363,0 2.000394,0.875033 2.000394,2.000395 V 20.4743 c 0,1.125363 -0.87503,2.000395 -2.000394,2.000395 h -5.999634 c -1.125361,0 -2.000395,-0.875033 -2.000395,-2.000395 v -5.999633 c 0,-1.125361 0.875035,-2.000395 2.000395,-2.000395 z m 2.999817,1.207161 a 1.0001,1.0001 0 0 0 -0.894519,0.552938 l -2.793111,5.585706 a 1.0001,1.0001 0 0 0 0.894519,1.447456 h 5.586222 a 1.0001,1.0001 0 0 0 0.894519,-1.447456 l -2.793111,-5.585706 a 1.0001,1.0001 0 0 0 -0.894519,-0.552938 z m 5.17e-4,1.000456 2.792594,5.584672 H 16.207277 Z M 3.000332,24.474056 c -1.661997,0 -3.0003339766295,1.338338 -3.0003339766295,3.000334 v 5.999633 c 0,1.661995 1.3383369766295,3.000334 3.0003339766295,3.000334 h 5.999633 c 1.661997,0 3.000334,-1.338339 3.000334,-3.000334 V 27.47439 c 0,-1.661996 -1.338337,-3.000334 -3.000334,-3.000334 z m 12.999723,0 c -1.66199,0 -2.999817,1.33834 -2.999817,3.000334 v 5.999633 c 0,1.661993 1.337827,3.000334 2.999817,3.000334 h 6.00015 c 1.661993,0 2.999817,-1.338341 2.999817,-3.000334 V 27.47439 c 0,-1.661994 -1.337824,-3.000334 -2.999817,-3.000334 z m 13.00024,0 c -1.661994,0 -3.000334,1.338338 -3.000334,3.000334 v 5.999633 c 0,1.661995 1.33834,3.000334 3.000334,3.000334 h 5.999634 c 1.661994,0 3.000333,-1.338339 3.000333,-3.000334 V 27.47439 c 0,-1.661996 -1.338339,-3.000334 -3.000333,-3.000334 z m -13.00024,1.000456 h 5.999634 c 1.125156,0 2.000394,0.874515 2.000394,1.999878 v 6.00015 c 0,1.125361 -0.875238,1.999878 -2.000394,1.999878 h -5.999634 c -1.125154,0 -2.000395,-0.874518 -2.000395,-1.999878 v -6.00015 c 0,-1.125362 0.875241,-1.999878 2.000395,-1.999878 z m 0.206706,1.207161 a 1.0001,1.0001 0 0 0 -0.894519,1.44694 l 2.793111,5.586222 a 1.0001,1.0001 0 0 0 1.789038,0 l 2.793111,-5.586222 a 1.0001,1.0001 0 0 0 -0.894519,-1.44694 z m -7.414018,0.999422 v 5.586223 L 3.207554,30.474206 Z m 20.414774,0 5.585189,2.793111 -5.585189,2.793112 z m -13.00024,5.17e-4 h 5.585706 l -2.792594,5.585189 z"
     inkscape:export-filename="icono_flechas.svg"
     inkscape:export-xdpi="96"
     inkscape:export-ydpi="96" /></svg>
