<?xml version="1.0" encoding="UTF-8" standalone="no"?>
<!-- Created with Inkscape (http://www.inkscape.org/) -->

<svg
   width="51.376709mm"
   height="41.000084mm"
   viewBox="0 0 51.376709 41.000084"
   version="1.1"
   id="svg1"
   inkscape:version="1.3.2 (091e20e, 2023-11-25, custom)"
   sodipodi:docname="icono_pantalla.svg"
   xml:space="preserve"
   xmlns:inkscape="http://www.inkscape.org/namespaces/inkscape"
   xmlns:sodipodi="http://sodipodi.sourceforge.net/DTD/sodipodi-0.dtd"
   xmlns="http://www.w3.org/2000/svg"
   xmlns:svg="http://www.w3.org/2000/svg"><sodipodi:namedview
     id="namedview1"
     pagecolor="#606060"
     bordercolor="#000000"
     borderopacity="0.25"
     inkscape:showpageshadow="false"
     inkscape:pageopacity="0.0"
     inkscape:pagecheckerboard="false"
     inkscape:deskcolor="#535353"
     inkscape:document-units="mm"
     showgrid="true"
     inkscape:zoom="2.6775672"
     inkscape:cx="-37.160598"
     inkscape:cy="58.075106"
     inkscape:window-width="1920"
     inkscape:window-height="1057"
     inkscape:window-x="1358"
     inkscape:window-y="-8"
     inkscape:window-maximized="1"
     inkscape:current-layer="svg1"><inkscape:grid
       id="grid1"
       units="cm"
       originx="-928.92678"
       originy="-281.88667"
       spacingx="500"
       spacingy="500"
       empcolor="#ffffff"
       empopacity="0.05882353"
       color="#0099e5"
       opacity="0"
       empspacing="1"
       dotted="false"
       gridanglex="30"
       gridanglez="30"
       visible="true"
       enabled="false" /><inkscape:grid
       id="grid2"
       units="cm"
       originx="-928.92678"
       originy="-281.88667"
       spacingx="99.999999"
       spacingy="99.999999"
       empcolor="#05e500"
       empopacity="0.10196078"
       color="#0099e5"
       opacity="0"
       empspacing="1"
       dotted="true"
       gridanglex="30"
       gridanglez="30"
       visible="true"
       enabled="false" /><inkscape:grid
       id="grid3"
       units="cm"
       originx="-928.92678"
       originy="-281.88667"
       spacingx="9.9999999"
       spacingy="9.9999999"
       empcolor="#98ff34"
       empopacity="0.05098039"
       color="#0099e5"
       opacity="0"
       empspacing="1"
       dotted="false"
       gridanglex="30"
       gridanglez="30"
       visible="true"
       enabled="false" /><inkscape:grid
       id="grid4"
       units="cm"
       originx="-928.92678"
       originy="-281.88667"
       spacingx="5"
       spacingy="5"
       empcolor="#00a5e5"
       empopacity="0.05098039"
       color="#0099e5"
       opacity="0"
       empspacing="1"
       dotted="true"
       gridanglex="30"
       gridanglez="30"
       visible="true"
       enabled="false" /></sodipodi:namedview><defs
     id="defs1" /><path
     id="rect1"
     style="color:#000000;fill:#b1f028;stroke-linecap:round;stroke-linejoin:round;-inkscape-stroke:none"
     d="M -31.203263 -11.316622 C -33.133608 -11.316622 -34.703308 -9.7469228 -34.703308 -7.8165771 L -34.703308 26.183415 C -34.703308 28.11376 -33.133608 29.683459 -31.203263 29.683459 L -29.857609 29.683459 L -29.857609 31.435291 C -29.857501 32.233724 -29.373378 32.950883 -28.636495 33.245516 L -21.196122 36.220528 C -20.737749 36.403711 -20.227193 36.403711 -19.768819 36.220528 L -12.328446 33.245516 C -12.292466 33.230336 -12.256993 33.21428 -12.221993 33.19694 C -12.211573 33.19224 -12.20081 33.187291 -12.19047 33.182471 C -12.065013 33.120921 -11.946946 33.045933 -11.83752 32.958712 C -11.83552 32.956912 -11.833319 32.955344 -11.831319 32.953544 C -11.724992 32.867044 -11.627828 32.769166 -11.541931 32.662089 C -11.533231 32.650959 -11.524563 32.639819 -11.516093 32.628499 C -11.437263 32.526288 -11.368652 32.41625 -11.311454 32.300354 C -11.305054 32.287264 -11.298981 32.27432 -11.292851 32.26108 C -11.237121 32.141665 -11.193823 32.016773 -11.163143 31.888493 C -11.160343 31.878323 -11.157475 31.868224 -11.154875 31.858004 C -11.125065 31.723094 -11.109753 31.585382 -11.108883 31.447176 C -11.108471 31.443176 -11.10772 31.439291 -11.107332 31.435291 L -11.107332 21.534086 C -11.107609 20.458364 -11.973914 19.586468 -13.042098 19.586401 C -13.272853 19.587777 -13.494649 19.6344 -13.70304 19.712492 L -13.70304 -7.8165771 C -13.70304 -9.7469228 -15.272739 -11.316622 -17.203084 -11.316622 L -20.201351 -11.316622 L -28.20293 -11.316622 L -31.203263 -11.316622 z M -31.203263 -10.316166 L -29.701029 -10.316166 C -29.701029 -9.9093176 -29.404718 -9.6517636 -29.132589 -9.5156982 C -28.860459 -9.379633 -28.547015 -9.3162272 -28.20293 -9.3162272 L -20.202901 -9.3162272 C -19.858816 -9.3162272 -19.543823 -9.3796329 -19.271692 -9.5156982 C -18.999562 -9.6517636 -18.703251 -9.9093176 -18.703251 -10.316166 L -17.203084 -10.316166 C -15.809441 -10.316166 -14.702979 -9.2102218 -14.702979 -7.8165771 L -14.702979 20.555851 C -14.750305 20.637942 -14.79247 20.724225 -14.828035 20.814233 L -14.828035 20.788912 C -14.828312 19.71334 -15.693732 18.841505 -16.761768 18.841227 C -17.549606 18.845727 -18.25646 19.331025 -18.548222 20.068026 L -18.548222 20.032369 C -18.548499 18.956647 -19.414286 18.08475 -20.482471 18.084684 C -21.270594 18.089384 -21.977011 18.57506 -22.268408 19.312516 L -22.268408 10.306348 C -22.268474 9.2304757 -23.134323 8.3582119 -24.202657 8.3581462 L -24.203174 8.3581462 C -25.271359 8.3584249 -26.136841 9.2306257 -26.136906 10.306348 L -26.136906 25.227917 C -26.423159 24.484071 -27.130715 23.991412 -27.922843 23.984066 C -28.991178 23.984132 -29.857544 24.855877 -29.857609 25.93175 L -29.857609 28.683521 L -31.203263 28.683521 C -32.596908 28.683521 -33.703369 27.577058 -33.703369 26.183415 L -33.703369 -7.8165771 C -33.703369 -9.2102218 -32.596908 -10.316166 -31.203263 -10.316166 z M -28.797209 3.6059814 L -31.797026 5.1061483 L -28.797209 6.6063151 L -28.797209 5.6063761 L -19.609139 5.6063761 L -19.609139 6.6063151 L -16.609322 5.1061483 L -19.609139 3.6059814 L -19.609139 4.6064372 L -28.797209 4.6064372 L -28.797209 3.6059814 z " /><path
     id="rect6"
     style="color:#000000;fill:#b1f028;fill-opacity:1;stroke-linecap:round;stroke-linejoin:round;-inkscape-stroke:none"
     d="M 3.5000638,-1.0267145e-5 C 1.5697138,-1.0267145e-5 1.3790113e-5,1.5696997 1.3790113e-5,3.5000297 V 25.66819 c 0,1.93035 1.569700009887,3.50005 3.500050009887,3.50005 H 23.188784 c 0,5.98784 -4.84158,10.83161 -10.82932,10.83189 h -5.1e-4 c -0.27592,1.5e-4 -0.49956,0.22379 -0.49972,0.49971 -1.3e-4,0.27612 0.2236,0.50008 0.49972,0.50023 h 5.1e-4 26.33173 c 0.27632,1.3e-4 0.50036,-0.22391 0.50023,-0.50023 -1.6e-4,-0.27612 -0.22411,-0.49984 -0.50023,-0.49971 h -5.2e-4 v -0.008 C 32.855314,39.81863 28.188994,35.0465 28.188994,29.1685 h 19.68768 c 1.93035,0 3.50005,-1.56969 3.50005,-3.50004 V 3.5002997 c 0,-1.93034 -1.5697,-3.50003996715 -3.50005,-3.50003996715 z m 0,0.999939997145 H 47.876674 c 1.39365,0 2.50011,1.10646997 2.50011,2.50009997 V 24.66877 c 0,1.39364 -1.10646,2.49959 -2.50011,2.49959 H 3.5000638 c -1.39365,0 -2.50011001,-1.10595 -2.50011001,-2.49959 V 3.5000297 c 0,-1.39363 1.10646001,-2.50009997 2.50011001,-2.50009997 z M 17.172614,10.07121 c -0.18891,0.38183 -0.51063,0.77589 -0.9648,1.18184 -0.45418,0.40595 -0.98472,0.75126 -1.59164,1.03663 v 1.04903 c 0.33762,-0.12459 0.71744,-0.3115 1.13947,-0.56069 0.42604,-0.2492 0.76969,-0.49805 1.03094,-0.74724 v 6.91482 h 1.08521 v -8.87439 z m 6.60166,0 c -0.93247,0 -1.67403,0.33763 -2.22467,1.01286 -0.63103,0.77572 -0.94671,2.01768 -0.94671,3.72587 0,1.52732 0.28554,2.62459 0.85628,3.29179 0.57074,0.66318 1.30793,0.99477 2.21226,0.99477 0.53055,0 1.00517,-0.12661 1.42317,-0.37982 0.41801,-0.25322 0.74523,-0.61714 0.98237,-1.09141 0.24115,-0.47829 0.36174,-0.9946 0.36174,-1.54926 0,-0.84404 -0.25489,-1.53134 -0.76533,-2.06189 -0.50643,-0.53456 -1.12138,-0.80202 -1.84485,-0.80202 -0.41398,0 -0.80971,0.0965 -1.18752,0.28939 -0.37782,0.19292 -0.69735,0.48835 -0.9586,0.88625 0.008,-0.88423 0.11053,-1.56551 0.30747,-2.0438 0.19694,-0.47829 0.46607,-0.84169 0.80771,-1.09089 0.26125,-0.19292 0.56487,-0.28939 0.91053,-0.28939 0.43006,0 0.79129,0.15458 1.08469,0.46406 0.17685,0.19292 0.31385,0.50258 0.41031,0.92862 l 1.07901,-0.0847 c -0.0884,-0.68729 -0.35588,-1.22553 -0.80202,-1.6154 -0.44212,-0.38987 -1.01051,-0.58498 -1.70584,-0.58498 z m 9.95391,0 c -0.79582,0 -1.459,0.27349 -1.98954,0.8201 -0.52652,0.54662 -0.79013,1.26791 -0.79013,2.16421 0,0.86816 0.25322,1.56752 0.75964,2.09807 0.50644,0.53054 1.12575,0.79581 1.85725,0.79581 0.4381,0 0.84371,-0.10634 1.2175,-0.31936 0.37781,-0.21704 0.67541,-0.49873 0.89245,-0.84439 0.004,0.0965 0.006,0.16884 0.006,0.21704 0,0.45016 -0.0543,0.89246 -0.16278,1.32654 -0.10852,0.43408 -0.24283,0.77991 -0.4036,1.03714 -0.16077,0.25322 -0.36793,0.45602 -0.62115,0.60875 -0.24919,0.15273 -0.54076,0.22893 -0.87436,0.22893 -0.38988,0 -0.70941,-0.11019 -0.9586,-0.33125 -0.24919,-0.22106 -0.418,-0.57677 -0.50643,-1.06712 l -1.04283,0.0961 c 0.0884,0.69533 0.35203,1.23628 0.79013,1.62212 0.4381,0.38184 1.00264,0.57258 1.69396,0.57258 0.65112,0 1.21784,-0.17484 1.70015,-0.52452 0.48633,-0.34968 0.85191,-0.85829 1.09709,-1.52549 0.24517,-0.67121 0.36794,-1.57119 0.36794,-2.70061 0,-1.08519 -0.12443,-1.91334 -0.37362,-2.48408 -0.24518,-0.57475 -0.60743,-1.01705 -1.08573,-1.32654 -0.47427,-0.30948 -0.99827,-0.46405 -1.57303,-0.46405 z m 0.1323,0.89814 c 0.46624,0 0.86414,0.18304 1.19372,0.5488 0.3336,0.36575 0.50023,0.86013 0.50023,1.48311 0,0.62299 -0.16278,1.11134 -0.48834,1.46503 -0.32155,0.34968 -0.73318,0.52452 -1.23559,0.52452 -0.49838,0 -0.91874,-0.17484 -1.26038,-0.52452 -0.33762,-0.35369 -0.50643,-0.81189 -0.50643,-1.37459 0,-0.62701 0.1792,-1.13729 0.53691,-1.53118 0.35772,-0.39389 0.77757,-0.59117 1.25988,-0.59117 z m -5.73971,1.57354 v 1.2361 h 1.2361 v -1.2361 z m -4.50928,1.62781 c 0.49437,0 0.90434,0.17702 1.2299,0.53072 0.32556,0.34967 0.48834,0.8298 0.48834,1.44074 0,0.63504 -0.16496,1.13763 -0.49454,1.5074 -0.32958,0.36977 -0.72313,0.55449 -1.18133,0.55449 -0.3135,0 -0.61328,-0.0883 -0.89865,-0.2651 -0.28537,-0.18087 -0.50844,-0.4423 -0.66921,-0.78393 -0.15675,-0.34164 -0.23513,-0.69901 -0.23513,-1.07281 0,-0.57074 0.17099,-1.03112 0.51263,-1.38079 0.34164,-0.3537 0.75764,-0.53072 1.24799,-0.53072 z m 4.50928,3.53932 v 1.23558 h 1.2361 v -1.23558 z m -3.93206,11.45822 h 3.00034 c 0,4.83838 2.9132,9.00051 7.07864,10.83189 h -17.15348 c 4.16294,-1.83338 7.0745,-5.99512 7.0745,-10.83189 z" /></svg>
