<?xml version="1.0" encoding="UTF-8" standalone="no"?>
<!-- Created with Inkscape (http://www.inkscape.org/) -->

<svg
   width="29.99925"
   height="30.134258"
   viewBox="0 0 7.9373015 7.9730227"
   version="1.1"
   id="svg5"
   inkscape:version="1.3.2 (091e20e, 2023-11-25, custom)"
   sodipodi:docname="artstation.svg"
   xml:space="preserve"
   inkscape:export-filename="02.png"
   inkscape:export-xdpi="96"
   inkscape:export-ydpi="96"
   xmlns:inkscape="http://www.inkscape.org/namespaces/inkscape"
   xmlns:sodipodi="http://sodipodi.sourceforge.net/DTD/sodipodi-0.dtd"
   xmlns="http://www.w3.org/2000/svg"
   xmlns:svg="http://www.w3.org/2000/svg"><sodipodi:namedview
     id="namedview7"
     pagecolor="#3a3a3a"
     bordercolor="#000000"
     borderopacity="0.25"
     inkscape:showpageshadow="2"
     inkscape:pageopacity="0"
     inkscape:pagecheckerboard="0"
     inkscape:deskcolor="#4f4f4f"
     inkscape:document-units="px"
     showgrid="false"
     showborder="false"
     inkscape:zoom="9.4507544"
     inkscape:cx="7.5126278"
     inkscape:cy="17.617641"
     inkscape:window-width="1920"
     inkscape:window-height="1057"
     inkscape:window-x="1358"
     inkscape:window-y="-8"
     inkscape:window-maximized="1"
     inkscape:current-layer="layer1"
     showguides="true" /><defs
     id="defs2" /><g
     inkscape:label="Capa 1"
     inkscape:groupmode="layer"
     id="layer1"
     transform="translate(187.04355,-536.12419)"><path
       style="fill:#ffffff;stroke-width:1;fill-opacity:1"
       d="m -185.79941,543.6315 c -0.20135,-0.038 -0.38426,-0.14955 -0.49601,-0.3024 -0.0182,-0.0248 -0.19387,-0.32318 -0.39054,-0.6631 l -0.35759,-0.61803 2.4588,2.8e-4 2.45881,3e-4 0.42691,0.74097 c 0.23481,0.40753 0.4417,0.76709 0.45977,0.799 l 0.0329,0.058 -2.26174,-8.7e-4 c -1.83115,-7.2e-4 -2.27499,-0.003 -2.33125,-0.014 z m 3.88473,-3.48729 -2.01028,-3.48235 0.71087,-0.002 c 0.44941,-0.002 0.73536,10e-4 0.77743,0.008 0.22139,0.0338 0.42979,0.16295 0.54563,0.3381 0.075,0.11341 2.69413,4.67408 2.7252,4.74539 0.0443,0.10177 0.067,0.23719 0.0596,0.35741 -0.007,0.11176 -0.0242,0.1757 -0.0774,0.28297 -0.0525,0.10603 -0.70527,1.23607 -0.71396,1.23607 -0.003,0 -0.91144,-1.56706 -2.01709,-3.48235 z m -4.46554,0.75628 c 0,-0.004 1.78013,-3.09336 1.7915,-3.10896 8.7e-4,-10e-4 0.37096,0.63769 0.82244,1.41974 0.45146,0.78205 0.85642,1.48335 0.89988,1.55843 l 0.079,0.13651 h -1.79643 c -0.98804,0 -1.79644,-0.002 -1.79644,-0.006 z"
       id="path1" /></g></svg>
